<?xml version="1.0" encoding="utf-8"?>
<!-- Generator: Adobe Illustrator 22.1.0, SVG Export Plug-In . SVG Version: 6.00 Build 0)  -->
<!DOCTYPE svg PUBLIC "-//W3C//DTD SVG 1.1//EN" "http://www.w3.org/Graphics/SVG/1.1/DTD/svg11.dtd">
<svg version="1.1" id="Layer_1" xmlns="http://www.w3.org/2000/svg" xmlns:xlink="http://www.w3.org/1999/xlink" x="0px" y="0px"
	 viewBox="0 0 92.2 57.2" style="enable-background:new 0 0 92.2 57.2;" xml:space="preserve">
<style type="text/css">
	.st0{fill:#606164;}
	.st1{fill:#7A2A82;}
</style>
<polygon class="st0" points="3.2,1.1 3.2,4 6.6,4 6.6,1.1 7.5,1.1 7.5,8 6.6,8 6.6,4.7 3.2,4.7 3.2,8 2.3,8 2.3,1.1 "/>
<g>
	<path class="st0" d="M12.1,5c0-0.6-0.2-1.5-1.3-1.5C10,3.6,9.6,4.4,9.5,5H12.1z M9.5,5.7c0,1.2,0.8,1.7,1.7,1.7
		c0.6,0,1-0.1,1.4-0.3l0.2,0.6c-0.3,0.1-0.9,0.3-1.7,0.3c-1.5,0-2.4-1-2.4-2.5c0-1.5,0.9-2.7,2.3-2.7c1.6,0,2.1,1.4,2.1,2.3
		c0,0.2,0,0.3,0,0.4H9.5z"/>
</g>
<rect x="14.1" y="0.7" class="st0" width="0.9" height="7.3"/>
<g>
	<path class="st0" d="M17.4,6c0,0.1,0,0.3,0,0.4c0.2,0.6,0.7,1.1,1.4,1.1c1,0,1.5-0.8,1.5-1.9c0-1-0.5-1.8-1.5-1.8
		c-0.6,0-1.2,0.4-1.4,1.1c0,0.1-0.1,0.2-0.1,0.4V6z M16.5,4.6c0-0.6,0-1.1,0-1.6h0.8l0.1,0.9h0c0.4-0.6,1-1,1.8-1
		c1.2,0,2.1,1,2.1,2.5c0,1.8-1.1,2.7-2.3,2.7c-0.7,0-1.2-0.3-1.5-0.8h0L17.3,10h-0.9L16.5,4.6z"/>
	<path class="st0" d="M25.5,1.1v4.1c0,1.5,0.7,2.2,1.6,2.2c1,0,1.7-0.7,1.7-2.2V1.1h0.9v4c0,2.1-1.1,3-2.6,3c-1.4,0-2.5-0.8-2.5-3
		V1.1H25.5z"/>
	<path class="st0" d="M31,7.1c0.3,0.2,0.7,0.3,1.2,0.3c0.6,0,1-0.3,1-0.7c0-0.4-0.3-0.7-0.9-0.9c-0.9-0.3-1.3-0.8-1.3-1.4
		c0-0.8,0.7-1.5,1.7-1.5c0.5,0,0.9,0.1,1.2,0.3l-0.2,0.7c-0.2-0.1-0.6-0.3-1-0.3c-0.5,0-0.8,0.3-0.8,0.7c0,0.4,0.3,0.6,0.9,0.9
		C33.6,5.4,34,5.9,34,6.6c0,0.9-0.7,1.5-1.8,1.5c-0.5,0-1-0.1-1.4-0.3L31,7.1z"/>
	<path class="st0" d="M37.3,6.9c0.4,0.3,1,0.5,1.6,0.5c0.9,0,1.4-0.5,1.4-1.2c0-0.6-0.4-1-1.3-1.4c-1.1-0.4-1.8-1-1.8-2
		c0-1.1,0.9-1.9,2.2-1.9c0.7,0,1.2,0.2,1.5,0.3L40.7,2c-0.2-0.1-0.7-0.3-1.3-0.3c-0.9,0-1.3,0.6-1.3,1c0,0.6,0.4,1,1.4,1.3
		c1.2,0.5,1.8,1,1.8,2c0,1.1-0.8,2-2.4,2c-0.7,0-1.4-0.2-1.8-0.5L37.3,6.9z"/>
	<path class="st0" d="M43,5.5c0,1.1,0.6,1.9,1.5,1.9c0.9,0,1.5-0.8,1.5-1.9c0-0.8-0.4-1.9-1.5-1.9C43.5,3.6,43,4.6,43,5.5 M47,5.5
		c0,1.8-1.3,2.6-2.5,2.6c-1.3,0-2.4-1-2.4-2.6c0-1.6,1.1-2.6,2.5-2.6C46,2.9,47,4,47,5.5"/>
</g>
<rect x="48.1" y="0.7" class="st0" width="0.9" height="7.3"/>
<g>
	<path class="st0" d="M50.9,3l1,2.8c0.2,0.5,0.3,0.9,0.4,1.3h0c0.1-0.4,0.3-0.8,0.4-1.3l1-2.8h0.9l-1.9,5h-0.9l-1.9-5H50.9z"/>
	<path class="st0" d="M58.5,5c0-0.6-0.2-1.5-1.2-1.5c-0.9,0-1.3,0.8-1.4,1.5H58.5z M55.9,5.7c0,1.2,0.8,1.7,1.7,1.7
		c0.6,0,1-0.1,1.4-0.3l0.2,0.6c-0.3,0.1-0.9,0.3-1.7,0.3c-1.5,0-2.4-1-2.4-2.5c0-1.5,0.9-2.7,2.3-2.7c1.6,0,2.1,1.4,2.1,2.3
		c0,0.2,0,0.3,0,0.4H55.9z"/>
</g>
<polygon class="st0" points="2.3,12.1 0.2,12.1 0.2,11.3 5.3,11.3 5.3,12.1 3.2,12.1 3.2,18.2 2.3,18.2 "/>
<g>
	<path class="st0" d="M6,11h0.9v3.1h0c0.1-0.3,0.4-0.5,0.6-0.6c0.3-0.2,0.6-0.2,0.9-0.2c0.7,0,1.7,0.4,1.7,2.1v3H9.3v-2.9
		c0-0.8-0.3-1.5-1.1-1.5c-0.6,0-1,0.4-1.2,0.9c-0.1,0.1-0.1,0.3-0.1,0.4v3H6V11z"/>
	<path class="st0" d="M14.9,15.3c0-0.6-0.2-1.5-1.3-1.5c-0.9,0-1.3,0.8-1.4,1.5H14.9z M12.2,15.9c0,1.2,0.8,1.7,1.7,1.7
		c0.6,0,1-0.1,1.4-0.3l0.2,0.6c-0.3,0.1-0.9,0.3-1.7,0.3c-1.5,0-2.4-1-2.4-2.5s0.9-2.7,2.3-2.7c1.6,0,2.1,1.4,2.1,2.3
		c0,0.2,0,0.3,0,0.4H12.2z"/>
	<path class="st0" d="M23.9,18c-0.3,0.2-1,0.3-1.8,0.3c-1.9,0-3.4-1.2-3.4-3.5c0-2.2,1.5-3.6,3.6-3.6c0.9,0,1.4,0.2,1.6,0.3
		l-0.2,0.7c-0.3-0.2-0.8-0.3-1.4-0.3c-1.6,0-2.7,1-2.7,2.9c0,1.7,1,2.8,2.6,2.8c0.6,0,1.1-0.1,1.5-0.3L23.9,18z"/>
	<path class="st0" d="M24.9,14.8c0-0.6,0-1.1,0-1.5h0.8l0,1h0c0.2-0.7,0.8-1.1,1.4-1.1c0.1,0,0.2,0,0.2,0v0.9c-0.1,0-0.2,0-0.3,0
		c-0.6,0-1.1,0.5-1.2,1.2c0,0.1,0,0.3,0,0.4v2.6h-0.9V14.8z"/>
	<path class="st0" d="M32.4,16.9c0,0.5,0,1,0,1.4h-0.8l-0.1-0.8h0c-0.2,0.4-0.8,0.9-1.6,0.9c-0.8,0-1.7-0.4-1.7-2.2v-2.9h0.9V16
		c0,0.9,0.3,1.6,1.1,1.6c0.6,0,1-0.4,1.2-0.8c0-0.1,0.1-0.3,0.1-0.5v-3h0.9V16.9z"/>
	<path class="st0" d="M37.1,15.3c0-0.6-0.2-1.5-1.2-1.5c-0.9,0-1.3,0.8-1.4,1.5H37.1z M34.4,15.9c0,1.2,0.8,1.7,1.7,1.7
		c0.6,0,1-0.1,1.4-0.3l0.2,0.6c-0.3,0.1-0.9,0.3-1.7,0.3c-1.5,0-2.4-1-2.4-2.5s0.9-2.7,2.3-2.7c1.6,0,2.1,1.4,2.1,2.3
		c0,0.2,0,0.3,0,0.4H34.4z"/>
</g>
<rect x="39.1" y="11" class="st0" width="0.9" height="7.3"/>
<g>
	<path class="st0" d="M49.5,15.2c-0.1-1-0.1-2.1-0.1-3h0c-0.2,0.8-0.5,1.7-0.9,2.6l-1.2,3.4h-0.7l-1.1-3.3c-0.3-1-0.6-1.9-0.8-2.7h0
		c0,0.9-0.1,2-0.1,3.1l-0.2,3h-0.9l0.5-6.9h1.1l1.2,3.3c0.3,0.9,0.5,1.6,0.7,2.3h0c0.2-0.7,0.4-1.5,0.7-2.3l1.2-3.3h1.1l0.4,6.9
		h-0.9L49.5,15.2z"/>
	<path class="st0" d="M52.3,13.3l1.1,2.9c0.1,0.3,0.2,0.7,0.3,1h0c0.1-0.3,0.2-0.7,0.3-1l1-2.9h1l-1.4,3.5c-0.6,1.7-1.1,2.6-1.7,3.1
		c-0.5,0.4-0.9,0.5-1.1,0.6l-0.2-0.7c0.2-0.1,0.5-0.2,0.8-0.4c0.2-0.2,0.5-0.5,0.8-1c0-0.1,0.1-0.2,0.1-0.2c0-0.1,0-0.1-0.1-0.2
		l-1.8-4.6H52.3z"/>
	<path class="st0" d="M56.6,17.3c0.3,0.2,0.7,0.3,1.2,0.3c0.6,0,1-0.3,1-0.7c0-0.4-0.3-0.7-0.9-0.9c-0.9-0.3-1.3-0.8-1.3-1.4
		c0-0.8,0.7-1.5,1.7-1.5c0.5,0,0.9,0.1,1.2,0.3l-0.2,0.7c-0.2-0.1-0.6-0.3-1-0.3c-0.5,0-0.8,0.3-0.8,0.7c0,0.4,0.3,0.6,0.9,0.9
		c0.9,0.3,1.3,0.7,1.3,1.5c0,0.9-0.7,1.5-1.8,1.5c-0.5,0-1-0.1-1.4-0.3L56.6,17.3z"/>
	<path class="st0" d="M61.9,12.1v1.2h1.3V14h-1.3v2.7c0,0.6,0.2,1,0.7,1c0.2,0,0.4,0,0.5-0.1l0,0.7c-0.2,0.1-0.5,0.1-0.8,0.1
		c-0.4,0-0.8-0.1-1-0.4c-0.2-0.3-0.3-0.7-0.3-1.3V14h-0.8v-0.7H61v-0.9L61.9,12.1z"/>
	<path class="st0" d="M67.3,15.3c0-0.6-0.2-1.5-1.3-1.5c-0.9,0-1.3,0.8-1.4,1.5H67.3z M64.7,15.9c0,1.2,0.8,1.7,1.7,1.7
		c0.6,0,1-0.1,1.4-0.3l0.2,0.6c-0.3,0.1-0.9,0.3-1.7,0.3c-1.5,0-2.4-1-2.4-2.5s0.9-2.7,2.3-2.7c1.6,0,2.1,1.4,2.1,2.3
		c0,0.2,0,0.3,0,0.4H64.7z"/>
	<path class="st0" d="M69.3,14.8c0-0.6,0-1.1,0-1.5h0.8l0,1h0c0.2-0.7,0.8-1.1,1.4-1.1c0.1,0,0.2,0,0.2,0v0.9c-0.1,0-0.2,0-0.3,0
		c-0.6,0-1.1,0.5-1.2,1.2c0,0.1,0,0.3,0,0.4v2.6h-0.9V14.8z"/>
	<path class="st0" d="M73.2,13.3l1.1,2.9c0.1,0.3,0.2,0.7,0.3,1h0c0.1-0.3,0.2-0.7,0.3-1l1-2.9h1l-1.4,3.5c-0.6,1.7-1.1,2.6-1.7,3.1
		c-0.5,0.4-0.9,0.5-1.1,0.6l-0.2-0.7c0.2-0.1,0.5-0.2,0.8-0.4c0.2-0.2,0.5-0.5,0.8-1c0-0.1,0.1-0.2,0.1-0.2c0-0.1,0-0.1-0.1-0.2
		l-1.8-4.6H73.2z"/>
</g>
<polygon class="st0" points="2.3,51.7 4.7,51.7 4.7,52.4 3.1,52.4 3.1,53.5 4.6,53.5 4.6,54.1 3.1,54.1 3.1,55.9 2.3,55.9 "/>
<g>
	<path class="st0" d="M6.7,53.8c0,0.8,0.4,1.5,1.1,1.5c0.7,0,1.1-0.7,1.1-1.5c0-0.8-0.4-1.5-1.1-1.5C7.1,52.3,6.7,53,6.7,53.8
		 M9.8,53.8c0,1.4-0.8,2.2-2,2.2c-1.2,0-1.9-0.9-1.9-2.1c0-1.3,0.8-2.2,2-2.2C9.1,51.7,9.8,52.6,9.8,53.8"/>
	<path class="st0" d="M11.9,51.7v2.4c0,0.8,0.3,1.2,0.8,1.2c0.5,0,0.9-0.4,0.9-1.2v-2.4h0.8v2.3c0,1.3-0.7,1.8-1.6,1.8
		c-1,0-1.6-0.5-1.6-1.8v-2.4H11.9z"/>
	<path class="st0" d="M15.9,55.9v-4.1h0.9l1.1,1.8c0.3,0.5,0.5,0.9,0.7,1.4h0c-0.1-0.5-0.1-1.1-0.1-1.7v-1.4h0.7v4.1h-0.8L17.3,54
		c-0.3-0.5-0.5-1-0.7-1.4l0,0c0,0.5,0,1.1,0,1.8v1.5H15.9z"/>
	<path class="st0" d="M21.4,55.3c0.1,0,0.3,0,0.4,0c1,0,1.6-0.5,1.6-1.6c0-0.9-0.5-1.4-1.5-1.4c-0.2,0-0.4,0-0.5,0V55.3z M20.7,51.8
		c0.3,0,0.8-0.1,1.2-0.1c0.8,0,1.3,0.2,1.7,0.5c0.4,0.3,0.6,0.8,0.6,1.5c0,0.7-0.2,1.3-0.6,1.6c-0.4,0.4-1.1,0.6-1.9,0.6
		c-0.4,0-0.8,0-1-0.1V51.8z"/>
	<path class="st0" d="M27.5,54.1l-0.3-1c-0.1-0.2-0.1-0.5-0.2-0.8h0c-0.1,0.2-0.1,0.5-0.2,0.8l-0.3,1H27.5z M26.3,54.7l-0.4,1.2
		h-0.8l1.3-4.1h1l1.3,4.1H28l-0.4-1.2H26.3z"/>
</g>
<polygon class="st0" points="30.3,52.4 29.2,52.4 29.2,51.7 32.3,51.7 32.3,52.4 31.1,52.4 31.1,55.9 30.3,55.9 "/>
<rect x="33.5" y="51.7" class="st0" width="0.8" height="4.1"/>
<g>
	<path class="st0" d="M36.4,53.8c0,0.8,0.4,1.5,1.1,1.5c0.7,0,1.1-0.7,1.1-1.5c0-0.8-0.4-1.5-1.1-1.5C36.7,52.3,36.4,53,36.4,53.8
		 M39.4,53.8c0,1.4-0.8,2.2-2,2.2c-1.2,0-1.9-0.9-1.9-2.1c0-1.3,0.8-2.2,2-2.2C38.7,51.7,39.4,52.6,39.4,53.8"/>
	<path class="st0" d="M40.8,55.9v-4.1h0.9l1.1,1.8c0.3,0.5,0.5,0.9,0.7,1.4h0c-0.1-0.5-0.1-1.1-0.1-1.7v-1.4H44v4.1h-0.8L42.2,54
		c-0.3-0.5-0.5-1-0.7-1.4l0,0c0,0.5,0,1.1,0,1.8v1.5H40.8z"/>
	<path class="st0" d="M48.1,53.8c0,0.8,0.4,1.5,1.1,1.5c0.7,0,1.1-0.7,1.1-1.5c0-0.8-0.4-1.5-1.1-1.5C48.5,52.3,48.1,53,48.1,53.8
		 M51.2,53.8c0,1.4-0.8,2.2-2,2.2c-1.2,0-1.9-0.9-1.9-2.1c0-1.3,0.8-2.2,2-2.2C50.5,51.7,51.2,52.6,51.2,53.8"/>
</g>
<polygon class="st0" points="52.5,51.7 54.9,51.7 54.9,52.4 53.3,52.4 53.3,53.5 54.8,53.5 54.8,54.1 53.3,54.1 53.3,55.9 
	52.5,55.9 "/>
<g>
	<path class="st0" d="M60.3,54.1l-0.3-1c-0.1-0.2-0.1-0.5-0.2-0.8h0c-0.1,0.2-0.1,0.5-0.2,0.8l-0.3,1H60.3z M59.1,54.7l-0.4,1.2H58
		l1.3-4.1h1l1.3,4.1h-0.8l-0.4-1.2H59.1z"/>
	<path class="st0" d="M66.4,54.2c0-0.5-0.1-1.2,0-1.7h0C66.1,53,66,53.5,65.8,54l-0.6,1.8h-0.6l-0.5-1.8c-0.2-0.5-0.3-1.1-0.4-1.6h0
		c0,0.5,0,1.2-0.1,1.8l-0.1,1.7h-0.7l0.3-4.1h1l0.5,1.7c0.1,0.5,0.3,1,0.4,1.4h0c0.1-0.4,0.2-1,0.4-1.4l0.6-1.6h1l0.2,4.1h-0.7
		L66.4,54.2z"/>
</g>
<polygon class="st0" points="70.9,54 69.4,54 69.4,55.2 71.1,55.2 71.1,55.9 68.6,55.9 68.6,51.7 71,51.7 71,52.4 69.4,52.4 
	69.4,53.4 70.9,53.4 "/>
<g>
	<path class="st0" d="M73.2,53.6h0.4c0.5,0,0.8-0.3,0.8-0.7c0-0.4-0.3-0.7-0.8-0.7c-0.2,0-0.4,0-0.5,0V53.6z M72.5,51.8
		c0.3-0.1,0.7-0.1,1.1-0.1c0.6,0,1,0.1,1.3,0.3c0.2,0.2,0.4,0.5,0.4,0.8c0,0.5-0.4,0.9-0.8,1v0c0.3,0.1,0.5,0.4,0.6,0.8
		c0.1,0.5,0.2,1,0.3,1.1h-0.8c-0.1-0.1-0.2-0.5-0.3-1c-0.1-0.5-0.3-0.7-0.7-0.7h-0.4v1.7h-0.7V51.8z"/>
</g>
<rect x="76.6" y="51.7" class="st0" width="0.8" height="4.1"/>
<g>
	<path class="st0" d="M81.9,55.7c-0.2,0.1-0.6,0.2-1.1,0.2c-1.3,0-2.1-0.8-2.1-2.1c0-1.4,0.9-2.2,2.2-2.2c0.5,0,0.8,0.1,1,0.2
		l-0.2,0.6c-0.2-0.1-0.5-0.2-0.8-0.2c-0.8,0-1.4,0.5-1.4,1.5c0,0.9,0.5,1.5,1.4,1.5c0.3,0,0.6-0.1,0.8-0.1L81.9,55.7z"/>
	<path class="st0" d="M85.3,54.1l-0.3-1c-0.1-0.2-0.1-0.5-0.2-0.8h0c-0.1,0.2-0.1,0.5-0.2,0.8l-0.3,1H85.3z M84.1,54.7l-0.4,1.2H83
		l1.3-4.1h1l1.3,4.1h-0.8l-0.4-1.2H84.1z"/>
</g>
<polygon class="st1" points="2.3,24.3 7,24.3 7,40.8 15.4,40.8 15.4,45.3 2.3,45.3 "/>
<g>
	<path class="st1" d="M21.5,24.3v12.1c0,3.6,1.4,5.5,3.8,5.5c2.5,0,3.9-1.7,3.9-5.5V24.3h4.7v11.8c0,6.5-3.3,9.6-8.7,9.6
		c-5.3,0-8.4-3-8.4-9.6V24.3H21.5z"/>
	<path class="st1" d="M57.6,24.3v12.1c0,3.6,1.4,5.5,3.8,5.5c2.5,0,3.9-1.7,3.9-5.5V24.3H70v11.8c0,6.5-3.3,9.6-8.8,9.6
		c-5.3,0-8.4-3-8.4-9.6V24.3H57.6z"/>
	<path class="st1" d="M36.8,24.3v4.1c6.7-1.6,9-0.1,9,2.4c0,2.2-1.7,4-9,2.8l0,6h4.5l0-2.1c7.1,0.8,9.4-3.2,9.4-6.4
		C50.6,26.2,48.1,22.7,36.8,24.3"/>
</g>
<polygon class="st1" points="36.8,45.2 36.8,45.2 36.8,45.2 41.2,45.2 41.2,40.8 36.8,40.8 "/>
<polygon class="st1" points="87.8,24.5 87,24.5 87,24.3 88.8,24.3 88.8,24.5 88,24.5 88,26.8 87.8,26.8 "/>
<g>
	<path class="st1" d="M91.5,25.6c0-0.4-0.1-0.8-0.1-1.1h0c-0.1,0.3-0.2,0.6-0.3,0.9l-0.5,1.4h-0.1L90,25.5c-0.1-0.4-0.2-0.7-0.3-1h0
		c0,0.3,0,0.7-0.1,1.1l-0.1,1.2h-0.2l0.2-2.5h0.2l0.5,1.4c0.1,0.3,0.2,0.6,0.3,0.8h0c0.1-0.2,0.2-0.5,0.3-0.8l0.6-1.4h0.2l0.2,2.5
		h-0.2L91.5,25.6z"/>
	<path class="st1" d="M80.3,32.6c-2.5-0.9-3.3-1.3-3.3-2.5c0-1.5,1.1-2.1,3.3-2.1c2,0,4.8,0.8,6,1.7V25c-1.2-0.7-3.3-1.1-5.7-1.1
		c-5.8,0-8.4,2.8-8.4,6.5c0,3,1.2,4.8,5.5,6.1c2.7,0.8,4.2,1.4,4.1,3.1c0,1-1,2-3.2,2c-2,0-5-1-6.3-1.6v4.4c1.2,0.7,3.5,1.3,5.9,1.3
		c5.8,0,8.3-3,8.4-6.5C86.8,35.6,84.9,34,80.3,32.6"/>
</g>
</svg>
